<svg xmlns="http://www.w3.org/2000/svg" version="1.1" xmlns:xlink="http://www.w3.org/1999/xlink" xmlns:svgjs="http://svgjs.com/svgjs" width="100%" height="100%" viewBox="0 0 1000 600"><rect width="1000" height="600" x="0" y="0" fill="#2f3c7e"/><g><rect width="333.3333333333333" height="333.3333333333333" rx="13.333333333333334" ry="13.333333333333334" y="135.4742619694372" fill="#fbeaeb" transform="matrix(1.1037329311223225,0,0,1.1037329311223223,0,-33.48289335062704)" x="113.25203704833983"/><path d="M229.11224916477292 227.14093456487987L229.11224916477292 227.14093456487987Q244.7842923898056 227.14093456487987 267.82192711339553 247.6516875334903L267.82192711339553 247.6516875334903Q299.16601356346075 284.04953749351466 299.16601356346075 323.0280326501137Q299.16601356346075 362.03340952751057 261.04773347238654 376.36136671266047L261.04773347238654 376.36136671266047L255.61762587126034 377.1409366157924Q235.1068729026499 377.1409366157924 223.49396951806315 347.3291082511935L223.49396951806315 347.3291082511935L223.11762542689596 347.3291082511935Q216.34343178588702 371.5226569690826 204.91870044688383 371.5226569690826L204.91870044688383 371.5226569690826L203.76278645258466 371.5226569690826Q188.6552593643028 371.5226569690826 183.036979717593 314.61405404044785L183.036979717593 314.61405404044785L183.036979717593 303.40437646782595Q183.4402055295578 283.26996759038263 194.4617110565962 280.3667417442359L194.4617110565962 280.3667417442359Q197.55310894832647 280.3667417442359 200.07999070330598 286.3613654821129L200.07999070330598 286.3613654821129Q194.4617110565962 294.10330107183745 194.4617110565962 304.56029046212507L194.4617110565962 304.56029046212507L194.4617110565962 306.30760231397255Q194.4617110565962 342.11405441644854 204.91870044688383 359.5334094933287L204.91870044688383 359.5334094933287Q212.66063603660834 353.9151298466188 216.34343178588702 313.45814004614874L216.34343178588702 313.45814004614874Q216.34343178588702 280.7430858354031 221.18214152946484 280.7430858354031L221.18214152946484 280.7430858354031L223.11762542689596 280.3667417442359Q229.48859325594012 280.3667417442359 229.48859325594012 292.9473870775382L229.48859325594012 292.9473870775382L228.33267926164095 314.23770994928066Q228.33267926164095 335.71620486660674 241.69289449807528 358.9420116357802L241.69289449807528 358.9420116357802Q248.27891609350067 365.52803323120565 255.0531097345096 365.52803323120565L255.0531097345096 365.52803323120565Q266.07461526154793 365.52803323120565 278.65526059485035 351.7914739036041L278.65526059485035 351.7914739036041Q287.553110178874 339.9635167526361 287.553110178874 321.9796455390052L287.553110178874 321.9796455390052Q287.553110178874 282.1140535960835 252.5262279795301 248.80760152778947L252.5262279795301 248.80760152778947Q243.44020634992282 241.46889175002977 224.64988351236227 236.81835405203552L224.64988351236227 236.81835405203552L223.11762542689596 233.13555830275683Q224.4617114667787 227.14093456487987 229.11224916477292 227.14093456487987ZM365.1875198425005 244.56028964176005L365.1875198425005 244.56028964176005Q375.0531113752396 244.56028964176005 376.8004232270872 251.71082737393616L376.8004232270872 251.71082737393616Q376.8004232270872 254.61405322008287 371.1821435803773 257.9205048781944L371.1821435803773 257.9205048781944L364.78429403053553 256.1731930263468L364.0047241274036 256.1731930263468Q353.1713906459488 256.1731930263468 339.24665927276374 286.95276333966126L339.24665927276374 286.95276333966126Q337.3111753753326 294.47964516300453 337.3111753753326 301.4688925703948L337.3111753753326 301.4688925703948L337.3111753753326 309.3990002057029L338.0907452784646 309.3990002057029Q361.6928961388053 303.78072055899304 368.27891773423073 303.78072055899304L368.27891773423073 303.78072055899304Q376.8004232270872 305.339860365257 376.8004232270872 310.55491420000203L376.8004232270872 310.55491420000203Q375.0531113752396 315.98502180112825 371.1821435803773 315.98502180112825L371.1821435803773 315.98502180112825L367.68751987668225 315.3936239435799Q347.95633681120387 317.14093579542737 338.65526141521536 321.38824768145685L338.65526141521536 321.38824768145685L338.65526141521536 322.75921544213713L340.99397112461133 354.10330189220247Q340.99397112461133 376.36136671266047 332.0692398197899 376.36136671266047L332.0692398197899 376.36136671266047Q328.97784192805966 376.36136671266047 326.4778418938778 371.5226569690826L326.4778418938778 371.5226569690826Q329.56923978560803 363.5925493337745 329.56923978560803 351.49577497482994Q329.56923978560803 339.39900061588537 327.2305300762122 323.91512943643636L327.2305300762122 323.91512943643636L317.9563364010213 325.0710434307355Q305.375691067719 323.91512943643636 305.375691067719 317.14093579542737L305.375691067719 317.14093579542737Q307.31117496515014 311.71082819430114 311.5584868511795 311.71082819430114L311.5584868511795 311.71082819430114L316.39719659475736 313.08179595498154L319.89182029845244 313.08179595498154L326.07461608191306 312.3022260518495L326.07461608191306 301.4688925703948Q326.07461608191306 271.46889216021225 352.60687450919806 248.80760152778947L352.60687450919806 248.80760152778947Q358.601498247075 244.56028964176005 365.1875198425005 244.56028964176005Z " fill="#2f3c7e" transform="matrix(1.1037329311223225,0,0,1.1037329311223223,0,-33.48289335062704)"/><path d="M564.7560980471211 227.1409388797998L564.7560980471211 227.1409388797998Q576.6056910530548 227.1409388797998 594.0243895197533 242.64906831981259L594.0243895197533 242.64906831981259Q617.7235755316209 270.16939238505154 617.7235755316209 299.64093588179935Q617.7235755316209 329.1328045809587 588.9024385120427 339.966137466315L588.9024385120427 339.966137466315L584.7967476249095 340.55556833624985Q569.2886181848968 340.55556833624985 560.508130743107 318.01491886184067L560.508130743107 318.01491886184067L560.2235779093454 318.01491886184067Q555.1016269016346 336.3076010322359 546.4634158767259 336.3076010322359L546.4634158767259 336.3076010322359L545.5894321730292 336.3076010322359Q534.1666684177379 336.3076010322359 529.9187011137241 293.27914752698416L529.9187011137241 293.27914752698416L529.9187011137241 284.80353812136775Q530.2235791498973 269.57996151511657 538.5569121386328 267.38483965466924L538.5569121386328 267.38483965466924Q540.8943104159611 267.38483965466924 542.8048794426469 271.9173597924449L542.8048794426469 271.9173597924449Q538.5569121386328 277.77101808697137 538.5569121386328 285.67752182506433L538.5569121386328 285.67752182506433L538.5569121386328 286.9986599818151Q538.5569121386328 314.07182959399995 546.4634158767259 327.2425607566845L546.4634158767259 327.2425607566845Q552.3170741712523 322.99459345267053 555.1016269016346 292.40516382328747L555.1016269016346 292.40516382328747Q555.1016269016346 267.66939248843084 558.7601633357137 267.66939248843084L558.7601633357137 267.66939248843084L560.2235779093454 267.38483965466924Q565.0406508808827 267.38483965466924 565.0406508808827 276.8970343832747L565.0406508808827 276.8970343832747L564.1666671771861 292.99459469322244Q564.1666671771861 309.234431420051 574.2682927757265 326.79540630363044L574.2682927757265 326.79540630363044Q579.2479673665563 331.7750808944602 584.3699183742671 331.7750808944602L584.3699183742671 331.7750808944602Q592.7032513630026 331.7750808944602 602.2154460916081 321.38890246215806L602.2154460916081 321.38890246215806Q608.9430880898312 312.44581340107595 608.9430880898312 298.8482529877489L608.9430880898312 298.8482529877489Q608.9430880898312 268.70597781142 582.4593493475812 243.52305202350925L582.4593493475812 243.52305202350925Q575.5894309324773 237.97427176515606 561.3821144468037 234.45801174795787L561.3821144468037 234.45801174795787L560.2235779093454 231.67345901757548Q561.2398380299229 227.1409388797998 564.7560980471211 227.1409388797998ZM629.288615703793 287.8726436855118L629.288615703793 287.8726436855118L631.9308920172945 286.4092291118802Q635.4471520344927 286.4092291118802 637.0528430250051 290.6571964158942L637.0528430250051 290.6571964158942Q634.7154447476769 301.47020409883885 634.7154447476769 312.8929678541301L634.7154447476769 312.8929678541301Q634.7154447476769 318.60434973177564 638.0691031455826 325.3319917299988L638.0691031455826 325.3319917299988L638.9430868492793 325.3319917299988Q643.1910541532933 325.3319917299988 649.0447124478197 291.8157329533525L649.0447124478197 291.8157329533525Q651.0975578913863 290.0677655459592 653.0081269180721 290.0677655459592L653.0081269180721 290.0677655459592Q657.5406470558478 290.0677655459592 657.5406470558478 306.165325855907L657.5406470558478 306.165325855907Q659.4308908801219 323.8685771563672 661.7886143598616 323.8685771563672L661.7886143598616 323.8685771563672L663.9837362203091 322.99459345267053Q668.2113783219116 324.600284443183 668.2113783219116 327.5271135904462L668.2113783219116 327.5271135904462Q665.5894272108217 333.09621905121094 660.8943054537535 333.09621905121094L660.8943054537535 333.09621905121094Q655.630078029162 333.09621905121094 650.8130050576247 322.5474389996165L650.8130050576247 322.5474389996165Q644.9593467630981 334.8441864586043 638.9430868492793 334.8441864586043L638.9430868492793 334.8441864586043Q630.0203229906087 334.8441864586043 626.5040629734106 316.2669514544474L626.5040629734106 316.2669514544474L626.077233722768 311.57182969737937L626.077233722768 310.1084151237477Q626.077233722768 298.4010985346948 629.288615703793 287.8726436855118ZM689.2886132226892 288.46207455544675L689.2886132226892 288.46207455544675Q704.796742662702 288.46207455544675 707.5812953930844 307.91329326330026L707.5812953930844 307.91329326330026Q707.5812953930844 325.189715313118 691.4837350831366 332.6490645981569L691.4837350831366 332.6490645981569Q689.7357676757432 333.5230483018536 686.6666621115992 333.5230483018536L686.6666621115992 333.5230483018536L685.63007678861 333.5230483018536L682.4186948075852 333.23849546809186L682.4186948075852 333.5230483018536L683.0081256775202 372.6084125392646Q681.971540354531 377.14093267704027 678.313003920452 377.14093267704027L678.313003920452 377.14093267704027Q674.2276382357304 375.8197945202895 674.2276382357304 372.8929653730263L674.2276382357304 372.8929653730263L672.9065000789797 293.27914752698416Q672.9065000789797 289.47833467602425 677.4390202167554 289.33605825914344L677.4390202167554 289.33605825914344L680.5081257808995 290.6571964158942Q684.6138166680325 288.46207455544675 689.2886132226892 288.46207455544675ZM681.971540354531 303.97020399545954L681.971540354531 303.97020399545954L681.5447111038885 308.50272413323523L681.971540354531 324.010853573248L686.0772312416642 325.04743889623705Q695.8739788040314 325.04743889623705 698.8008079512947 310.6978459936827L698.8008079512947 310.6978459936827L698.8008079512947 308.50272413323523Q697.7845478307171 296.93768396106316 690.6097513794399 296.93768396106316L690.6097513794399 296.93768396106316L688.4146295189925 296.93768396106316Q681.971540354531 296.93768396106316 681.971540354531 303.97020399545954ZM720.609750138888 251.14500292784058L720.609750138888 251.14500292784058Q724.7154410260212 251.14500292784058 724.7154410260212 261.0840269070886L724.7154410260212 261.0840269070886L726.4634084334144 286.2669526949993L727.0528393033494 286.2669526949993L734.3699121715075 283.482399964617Q746.6666596304954 283.482399964617 749.2886107415853 308.64500055011604L749.2886107415853 308.64500055011604Q750.3251960645744 315.81979700139334 750.3251960645744 329.72223545089366L750.3251960645744 329.72223545089366L750.3251960645744 341.57182845682746Q750.3251960645744 347.1409339175922 746.2195051774413 347.1409339175922L746.2195051774413 347.1409339175922L745.6300743075062 347.1409339175922Q741.6869850396656 346.5515030476572 741.6869850396656 342.8929666135782L741.6869850396656 342.8929666135782L741.6869850396656 329.1328045809587Q741.6869850396656 296.06370025736646 735.2438958752041 292.54744024016827L735.2438958752041 292.54744024016827L734.3699121715075 292.54744024016827Q729.9796684506127 292.54744024016827 727.9268230070461 306.02304943902607L727.9268230070461 306.02304943902607L727.9268230070461 314.21410601088087Q727.9268230070461 336.1653246153551 724.2682865729671 336.1653246153551L724.2682865729671 336.1653246153551L721.4837338425847 336.4498774491168Q717.398368157863 336.4498774491168 717.398368157863 324.3157316094213L717.398368157863 324.3157316094213Q717.8251974085056 311.42955328049845 719.1463355652563 303.23849670864377L719.1463355652563 303.23849670864377L716.0772300011123 255.08809219568133Q716.0772300011123 251.28727934472144 720.609750138888 251.14500292784058ZM780.0203167878492 266.0637014979184L780.0203167878492 266.0637014979184Q786.9105604053648 266.0637014979184 789.5325115164546 280.6978472342346L789.5325115164546 280.6978472342346L789.5325115164546 281.28727810416956Q789.5325115164546 284.6409365020753 784.999991378679 285.2303673720103L784.999991378679 285.2303673720103Q781.3414549446 285.2303673720103 780.0203167878492 276.1653270964589L780.0203167878492 276.1653270964589L779.4308859179143 275.7181726434047L777.682918510521 275.7181726434047Q774.471536529496 280.41329440047286 774.471536529496 288.0149201023927L774.471536529496 288.0149201023927L774.8983657801386 295.3319929705507Q780.7520240746651 295.3319929705507 787.6422676921806 292.26288740640666L787.6422676921806 292.26288740640666Q790.4064952201513 292.26288740640666 792.7642186998912 296.2059766742474L792.7642186998912 296.2059766742474Q792.7642186998912 302.2019113856546 776.3617803537702 304.11248041234035L776.3617803537702 304.11248041234035L780.0203167878492 327.9742680435004Q780.0203167878492 331.0433736076444 774.8983657801386 331.9173573113411L774.8983657801386 331.9173573113411Q770.3658456423628 331.9173573113411 770.3658456423628 317.87264244495987L770.3658456423628 317.87264244495987L767.5812929119805 305.4336185690912L758.069098183375 306.89703314272276Q754.999992619231 306.89703314272276 754.410561749296 302.36451300494707L754.410561749296 302.36451300494707Q754.410561749296 297.9742692840522 766.2601547552298 296.79540754418235L766.2601547552298 296.79540754418235L765.6910490877063 287.73036726863097Q768.0284473650346 266.0637014979184 780.0203167878492 266.0637014979184Z " fill="#fbeaeb" transform="matrix(1.1037329311223225,0,0,1.1037329311223223,0,-33.48289335062704)"/></g></svg>